<svg xmlns="http://www.w3.org/2000/svg" xmlns:xlink="http://www.w3.org/1999/xlink" aria-hidden="true" role="img"
    class="iconify iconify--logos" width="35.93" height="32" preserveAspectRatio="xMidYMid meet" viewBox="0 0 256 228">
    <path fill="#00D8FF"
        d="M210.483 73.824a171.49 171.49 0 0 0-8.24-2.597c.465-1.9.893-3.777 1.273-5.621c6.238-30.281 2.16-54.676-11.769-62.708c-13.355-7.7-35.196.329-57.254 19.526a171.23 171.23 0 0 0-6.375 5.848a155.866 155.866 0 0 0-4.241-3.917C100.759 3.829 77.587-4.822 63.673 3.233C50.33 10.957 46.379 33.89 51.995 62.588a170.974 170.974 0 0 0 1.892 8.48c-3.28.932-6.445 1.924-9.474 2.98C17.309 83.498 0 98.307 0 113.668c0 15.865 18.582 31.778 46.812 41.427a145.52 145.52 0 0 0 6.921 2.165a167.467 167.467 0 0 0-2.01 9.138c-5.354 28.2-1.173 50.591 12.134 58.266c13.744 7.926 36.812-.22 59.273-19.855a145.567 145.567 0 0 0 5.342-4.923a168.064 168.064 0 0 0 6.92 6.314c21.758 18.722 43.246 26.282 56.54 18.586c13.731-7.949 18.194-32.003 12.4-61.268a145.016 145.016 0 0 0-1.535-6.842c1.62-.48 3.21-.974 4.76-1.488c29.348-9.723 48.443-25.443 48.443-41.52c0-15.417-17.868-30.326-45.517-39.844Zm-6.365 70.984c-1.4.463-2.836.91-4.3 1.345c-3.24-10.257-7.612-21.163-12.963-32.432c5.106-11 9.31-21.767 12.459-31.957c2.619.758 5.16 1.557 7.61 2.4c23.69 8.156 38.14 20.213 38.14 29.504c0 9.896-15.606 22.743-40.946 31.14Zm-10.514 20.834c2.562 12.94 2.927 24.64 1.23 33.787c-1.524 8.219-4.59 13.698-8.382 15.893c-8.067 4.67-25.32-1.4-43.927-17.412a156.726 156.726 0 0 1-6.437-5.87c7.214-7.889 14.423-17.06 21.459-27.246c12.376-1.098 24.068-2.894 34.671-5.345a134.17 134.17 0 0 1 1.386 6.193ZM87.276 214.515c-7.882 2.783-14.16 2.863-17.955.675c-8.075-4.657-11.432-22.636-6.853-46.752a156.923 156.923 0 0 1 1.869-8.499c10.486 2.32 22.093 3.988 34.498 4.994c7.084 9.967 14.501 19.128 21.976 27.15a134.668 134.668 0 0 1-4.877 4.492c-9.933 8.682-19.886 14.842-28.658 17.94ZM50.35 144.747c-12.483-4.267-22.792-9.812-29.858-15.863c-6.35-5.437-9.555-10.836-9.555-15.216c0-9.322 13.897-21.212 37.076-29.293c2.813-.98 5.757-1.905 8.812-2.773c3.204 10.42 7.406 21.315 12.477 32.332c-5.137 11.18-9.399 22.249-12.634 32.792a134.718 134.718 0 0 1-6.318-1.979Zm12.378-84.26c-4.811-24.587-1.616-43.134 6.425-47.789c8.564-4.958 27.502 2.111 47.463 19.835a144.318 144.318 0 0 1 3.841 3.545c-7.438 7.987-14.787 17.08-21.808 26.988c-12.04 1.116-23.565 2.908-34.161 5.309a160.342 160.342 0 0 1-1.76-7.887Zm110.427 27.268a347.8 347.8 0 0 0-7.785-12.803c8.168 1.033 15.994 2.404 23.343 4.08c-2.206 7.072-4.956 14.465-8.193 22.045a381.151 381.151 0 0 0-7.365-13.322Zm-45.032-43.861c5.044 5.465 10.096 11.566 15.065 18.186a322.04 322.04 0 0 0-30.257-.006c4.974-6.559 10.069-12.652 15.192-18.18ZM82.802 87.83a323.167 323.167 0 0 0-7.227 13.238c-3.184-7.553-5.909-14.98-8.134-22.152c7.304-1.634 15.093-2.97 23.209-3.984a321.524 321.524 0 0 0-7.848 12.897Zm8.081 65.352c-8.385-.936-16.291-2.203-23.593-3.793c2.26-7.3 5.045-14.885 8.298-22.6a321.187 321.187 0 0 0 7.257 13.246c2.594 4.48 5.28 8.868 8.038 13.147Zm37.542 31.03c-5.184-5.592-10.354-11.779-15.403-18.433c4.902.192 9.899.29 14.978.29c5.218 0 10.376-.117 15.453-.343c-4.985 6.774-10.018 12.97-15.028 18.486Zm52.198-57.817c3.422 7.8 6.306 15.345 8.596 22.52c-7.422 1.694-15.436 3.058-23.88 4.071a382.417 382.417 0 0 0 7.859-13.026a347.403 347.403 0 0 0 7.425-13.565Zm-16.898 8.101a358.557 358.557 0 0 1-12.281 19.815a329.4 329.4 0 0 1-23.444.823c-7.967 0-15.716-.248-23.178-.732a310.202 310.202 0 0 1-12.513-19.846h.001a307.41 307.41 0 0 1-10.923-20.627a310.278 310.278 0 0 1 10.89-20.637l-.001.001a307.318 307.318 0 0 1 12.413-19.761c7.613-.576 15.42-.876 23.31-.876H128c7.926 0 15.743.303 23.354.883a329.357 329.357 0 0 1 12.335 19.695a358.489 358.489 0 0 1 11.036 20.54a329.472 329.472 0 0 1-11 20.722Zm22.56-122.124c8.572 4.944 11.906 24.881 6.52 51.026c-.344 1.668-.73 3.367-1.15 5.09c-10.622-2.452-22.155-4.275-34.23-5.408c-7.034-10.017-14.323-19.124-21.64-27.008a160.789 160.789 0 0 1 5.888-5.4c18.9-16.447 36.564-22.941 44.612-18.3ZM128 90.808c12.625 0 22.86 10.235 22.86 22.86s-10.235 22.86-22.86 22.86s-22.86-10.235-22.86-22.86s10.235-22.86 22.86-22.86Z">
    </path>
    <defs>
        <symbol id="location" viewBox="0 0 16 16" fill="none">
            <path
                d="M14 6.66663C14 11.3333 8 15.3333 8 15.3333C8 15.3333 2 11.3333 2 6.66663C2 5.07533 2.63214 3.5492 3.75736 2.42399C4.88258 1.29877 6.4087 0.666626 8 0.666626C9.5913 0.666626 11.1174 1.29877 12.2426 2.42399C13.3679 3.5492 14 5.07533 14 6.66663Z"
                stroke="#11101C" stroke-width="1.5" stroke-linecap="round" stroke-linejoin="round" />
            <path
                d="M8 8.66663C9.10457 8.66663 10 7.7712 10 6.66663C10 5.56206 9.10457 4.66663 8 4.66663C6.89543 4.66663 6 5.56206 6 6.66663C6 7.7712 6.89543 8.66663 8 8.66663Z"
                stroke="#11101C" stroke-width="1.5" stroke-linecap="round" stroke-linejoin="round" />
        </symbol>


        <symbol id="star" viewBox="0 0 16 16">
            <g clip-path="url(#clip0_31_2512)">
                <path
                    d="M6.20021 4.69703L8 1.28579L9.79979 4.69703C9.95896 4.9987 10.2491 5.20947 10.5851 5.26762L14.3856 5.92519L11.6975 8.69103C11.4598 8.93563 11.3489 9.27666 11.3975 9.61427L11.9465 13.4319L8.48537 11.7301C8.17929 11.5795 7.82071 11.5795 7.51463 11.7301L4.05348 13.4319L4.6025 9.61427C4.65105 9.27666 4.54024 8.93563 4.30252 8.69103L1.6144 5.92519L5.41486 5.26762C5.75095 5.20947 6.04104 4.9987 6.20021 4.69703Z"
                    fill="#FFC531" stroke="#FFC531" stroke-width="1.2" />
            </g>
            <defs>
                <clipPath id="clip0_31_2512">
                    <rect width="16" height="16" fill="white" />
                </clipPath>
            </defs>
        </symbol>

        <symbol id="eye-off" viewBox="0 0 20 20" fill="none">
            <path
                d="M14.95 14.9499C13.5255 16.0358 11.7909 16.6373 9.99998 16.6666C4.16665 16.6666 0.833313 9.99994 0.833313 9.99994C1.86989 8.06819 3.30759 6.38045 5.04998 5.04994M8.24998 3.53327C8.82359 3.39901 9.41087 3.33189 9.99998 3.33327C15.8333 3.33327 19.1666 9.99994 19.1666 9.99994C18.6608 10.9463 18.0575 11.8372 17.3666 12.6583M11.7666 11.7666C11.5378 12.0122 11.2618 12.2092 10.9551 12.3459C10.6484 12.4825 10.3174 12.556 9.98172 12.5619C9.64605 12.5678 9.31262 12.5061 9.00132 12.3803C8.69003 12.2546 8.40725 12.0675 8.16985 11.8301C7.93246 11.5927 7.74531 11.3099 7.61957 10.9986C7.49383 10.6873 7.43209 10.3539 7.43801 10.0182C7.44393 9.68252 7.5174 9.35148 7.65404 9.04481C7.79068 8.73815 7.98769 8.46215 8.23331 8.23327"
                stroke="#11101C" stroke-width="2" stroke-linecap="round" stroke-linejoin="round" />
            <path d="M0.833313 0.833374L19.1666 19.1667" stroke="#11101C" stroke-width="2" stroke-linecap="round"
                stroke-linejoin="round" />
        </symbol>


        <symbol id="eye" viewBox="0 0 20 20" fill="none">
            <path
                d="M0.833313 10C0.833313 10 4.16665 3.33337 9.99998 3.33337C15.8333 3.33337 19.1666 10 19.1666 10C19.1666 10 15.8333 16.6667 9.99998 16.6667C4.16665 16.6667 0.833313 10 0.833313 10Z"
                stroke="#11101C" stroke-width="2" stroke-linecap="round" stroke-linejoin="round" />
            <path
                d="M10 12.5C11.3807 12.5 12.5 11.3807 12.5 10C12.5 8.61929 11.3807 7.5 10 7.5C8.61929 7.5 7.5 8.61929 7.5 10C7.5 11.3807 8.61929 12.5 10 12.5Z"
                stroke="#11101C" stroke-width="2" stroke-linecap="round" stroke-linejoin="round" />
        </symbol>


        <symbol id="heart" viewBox="0 0 26 26" fill="none">
            <path
                d="M22.5767 4.99419C22.0234 4.44061 21.3664 4.00147 20.6433 3.70187C19.9202 3.40226 19.1452 3.24805 18.3625 3.24805C17.5798 3.24805 16.8048 3.40226 16.0817 3.70187C15.3586 4.00147 14.7017 4.44061 14.1484 4.99419L13 6.14252L11.8517 4.99419C10.734 3.87652 9.21815 3.24863 7.63753 3.24863C6.05691 3.24863 4.54103 3.87652 3.42336 4.99419C2.30569 6.11186 1.6778 7.62774 1.6778 9.20836C1.6778 10.789 2.30569 12.3049 3.42336 13.4225L4.57169 14.5709L13 22.9992L21.4284 14.5709L22.5767 13.4225C23.1303 12.8692 23.5694 12.2122 23.869 11.4892C24.1686 10.7661 24.3228 9.99105 24.3228 9.20836C24.3228 8.42566 24.1686 7.65064 23.869 6.92756C23.5694 6.20448 23.1303 5.54751 22.5767 4.99419Z"
                stroke="#11101C" stroke-width="2" stroke-linecap="round" stroke-linejoin="round" />
        </symbol>


        <symbol id="heart-filled" viewBox="0 0 26 26">
            <path
                d="M22.5767 4.99419C22.0234 4.44061 21.3664 4.00147 20.6433 3.70187C19.9202 3.40226 19.1452 3.24805 18.3625 3.24805C17.5798 3.24805 16.8048 3.40226 16.0817 3.70187C15.3586 4.00147 14.7017 4.44061 14.1484 4.99419L13 6.14252L11.8517 4.99419C10.734 3.87652 9.21815 3.24863 7.63753 3.24863C6.05691 3.24863 4.54103 3.87652 3.42336 4.99419C2.30569 6.11186 1.6778 7.62774 1.6778 9.20836C1.6778 10.789 2.30569 12.3049 3.42336 13.4225L4.57169 14.5709L13 22.9992L21.4284 14.5709L22.5767 13.4225C23.1303 12.8692 23.5694 12.2122 23.869 11.4892C24.1686 10.7661 24.3228 9.99105 24.3228 9.20836C24.3228 8.42566 24.1686 7.65064 23.869 6.92756C23.5694 6.20448 23.1303 5.54751 22.5767 4.99419Z"
                fill="#F03F3B" stroke="#F03F3B" stroke-width="2" stroke-linecap="round" stroke-linejoin="round" />
        </symbol>

        <symbol id="user" viewBox="0 0 40 40">
            <rect width="40" height="40" rx="10" fill="#FBFBFB" />
            <path
                d="M20 12C21.0609 12 22.0783 12.4214 22.8284 13.1716C23.5786 13.9217 24 14.9391 24 16C24 17.0609 23.5786 18.0783 22.8284 18.8284C22.0783 19.5786 21.0609 20 20 20C18.9391 20 17.9217 19.5786 17.1716 18.8284C16.4214 18.0783 16 17.0609 16 16C16 14.9391 16.4214 13.9217 17.1716 13.1716C17.9217 12.4214 18.9391 12 20 12ZM20 22C24.42 22 28 23.79 28 26V28H12V26C12 23.79 15.58 22 20 22Z"
                fill="#F03F3B" />
        </symbol>

        <symbol id="circle" viewBox="0 0 44 44">
            <rect width="44" height="44" rx="22" fill="#F03F3B" fill-opacity="0.2" />
        </symbol>

        <symbol id="checkmark" viewBox="0 0 15 17">
            <path
                d="M12.8229 1.67313C12.7461 1.12622 12.2404 0.745174 11.6935 0.822036L2.78109 2.0746C2.23418 2.15146 1.85313 2.65713 1.92999 3.20404C2.00685 3.75095 2.51252 4.13199 3.05943 4.05513L10.9816 2.94175L12.095 10.8639C12.1718 11.4108 12.6775 11.7918 13.2244 11.715C13.7713 11.6381 14.1524 11.1325 14.0755 10.5855L12.8229 1.67313ZM1.79864 16.7896L12.6313 2.41412L11.034 1.21049L0.201365 15.5859L1.79864 16.7896Z"
                fill="#FBFBFB" />
        </symbol>

        <symbol id="checkmark-large" viewBox="0 0 30 30">
            <path fill-rule="evenodd" clip-rule="evenodd"
                d="M7.5 12.5L5 15L12.5 22.5L25 10L22.5 7.5L12.5 17.5L7.5 12.5Z" fill="#FBFBFB" />
        </symbol>

        <symbol id="checkmark-down" viewBox="0 0 20 20" fill="none">
            <path d="M5 7.5L10 12.5L15 7.5" stroke="#FBFBFB" stroke-width="2" stroke-linecap="round"
                stroke-linejoin="round" />
        </symbol>




    </defs>
</svg>